<?xml version="1.0" encoding="UTF-8"?>
<svg width="800px" height="600px" viewBox="0 0 800 600" version="1.1" xmlns="http://www.w3.org/2000/svg">
    <!-- Background Elements -->
    <circle cx="400" cy="300" r="250" fill="#ffffff" opacity="0.1"/>
    <circle cx="400" cy="300" r="200" fill="#ffffff" opacity="0.1"/>
    
    <!-- Document Stack -->
    <g transform="translate(300, 200)">
        <!-- Base Document -->
        <rect x="0" y="0" width="200" height="250" rx="0" fill="#ffffff" opacity="0.9"/>
        <line x1="20" y1="50" x2="180" y2="50" stroke="#000000" stroke-width="3"/>
        <line x1="20" y1="80" x2="180" y2="80" stroke="#000000" stroke-width="3"/>
        <line x1="20" y1="110" x2="180" y2="110" stroke="#000000" stroke-width="3"/>
        
        <!-- Middle Document -->
        <rect x="10" y="-10" width="200" height="250" rx="0" fill="#ffffff" opacity="0.8"/>
        <line x1="30" y1="40" x2="190" y2="40" stroke="#000000" stroke-width="3"/>
        <line x1="30" y1="70" x2="190" y2="70" stroke="#000000" stroke-width="3"/>
        <line x1="30" y1="100" x2="190" y2="100" stroke="#000000" stroke-width="3"/>
        
        <!-- Top Document -->
        <rect x="20" y="-20" width="200" height="250" rx="0" fill="#ffffff" opacity="0.7"/>
        <line x1="40" y1="30" x2="200" y2="30" stroke="#000000" stroke-width="3"/>
        <line x1="40" y1="60" x2="200" y2="60" stroke="#000000" stroke-width="3"/>
        <line x1="40" y1="90" x2="200" y2="90" stroke="#000000" stroke-width="3"/>
    </g>
    
    <!-- Decorative Elements -->
    <circle cx="150" cy="150" r="20" fill="#ffffff" opacity="0.3"/>
    <circle cx="650" cy="450" r="30" fill="#ffffff" opacity="0.3"/>
    <circle cx="200" cy="500" r="15" fill="#ffffff" opacity="0.3"/>
    <circle cx="600" cy="100" r="25" fill="#ffffff" opacity="0.3"/>
</svg>